<svg fill="#000000" xmlns="http://www.w3.org/2000/svg"  viewBox="0 0 50 50" width="50px" height="50px"><path fill="none" stroke="#000000" stroke-linejoin="round" stroke-miterlimit="10" stroke-width="2" d="M24.15,2	c1.868,4.419,3.92,9.747,6.153,13.75L31,17h1.411C38.2,17,43.105,18.349,49,20c-5.26,3.711-8.2,4.955-12.182,9.405	C36.648,29.595,36,30.5,36,30.5s2.355,5.248,2.907,7.095C39.914,40.968,40.639,44.529,41,48c0,0-9.039-6.535-15.638-8.75	C25.15,39.179,24.5,39,24.5,39S14.091,43.619,7,48c0.368-1.083,0.821-2.379,1.307-3.772c1.765-5.052,4.601-9.026,5.399-12.59	C13.797,31.232,13.999,30,13.999,30S7.6,26.643,5.8,25.205C4.095,23.844,1.654,21.427,1,20c1.452-0.069,2.853-0.08,4.46-0.447	C7.818,18.976,10.818,17,15.322,17H16c0,0,1.083-2.135,2.221-4.398C18.883,11.285,23.036,4.249,24.15,2z"/></svg>